<?xml version="1.0" encoding="UTF-8" standalone="no"?>
<svg
   xmlns:dc="http://purl.org/dc/elements/1.1/"
   xmlns:cc="http://creativecommons.org/ns#"
   xmlns:rdf="http://www.w3.org/1999/02/22-rdf-syntax-ns#"
   xmlns:svg="http://www.w3.org/2000/svg"
   xmlns="http://www.w3.org/2000/svg"
   xmlns:sodipodi="http://sodipodi.sourceforge.net/DTD/sodipodi-0.dtd"
   xmlns:inkscape="http://www.inkscape.org/namespaces/inkscape"
   id="Layer_1"
   data-name="Layer 1"
   viewBox="0 0 91.020004 95.310165"
   version="1.1"
   sodipodi:docname="odysee.svg"
   width="91.020004"
   height="95.310165"
   inkscape:version="1.0.2 (e86c870879, 2021-01-15)">
  <metadata
     id="metadata64">
    <rdf:RDF>
      <cc:Work
         rdf:about="">
        <dc:format>image/svg+xml</dc:format>
        <dc:type
           rdf:resource="http://purl.org/dc/dcmitype/StillImage" />
        <dc:title>odysee_</dc:title>
      </cc:Work>
    </rdf:RDF>
  </metadata>
  <sodipodi:namedview
     pagecolor="#262b2a"
     bordercolor="#666666"
     borderopacity="1"
     objecttolerance="10"
     gridtolerance="10"
     guidetolerance="10"
     inkscape:pageopacity="0"
     inkscape:pageshadow="2"
     inkscape:window-width="1920"
     inkscape:window-height="1017"
     id="namedview62"
     showgrid="false"
     fit-margin-top="0"
     fit-margin-left="0"
     fit-margin-right="0"
     fit-margin-bottom="0"
     inkscape:zoom="1.873833"
     inkscape:cx="30.329944"
     inkscape:cy="65.771005"
     inkscape:window-x="-8"
     inkscape:window-y="-8"
     inkscape:window-maximized="1"
     inkscape:current-layer="Layer_1"
     inkscape:document-rotation="0" />
  <defs
     id="defs17">
    <style
       id="style2">.cls-1{fill:url(#linear-gradient);}.cls-2{fill:#fff;}.cls-3{fill:none;}.cls-4{fill:#f9f9f9;}</style>
    <linearGradient
       id="linear-gradient"
       x1="37.900002"
       y1="5.54"
       x2="110.84"
       y2="180.14999"
       gradientUnits="userSpaceOnUse">
      <stop
         offset="0"
         stop-color="#ef1970"
         id="stop4" />
      <stop
         offset="0.14"
         stop-color="#f23b5c"
         id="stop6" />
      <stop
         offset="0.44"
         stop-color="#f77d35"
         id="stop8" />
      <stop
         offset="0.7"
         stop-color="#fcad18"
         id="stop10" />
      <stop
         offset="0.89"
         stop-color="#fecb07"
         id="stop12" />
      <stop
         offset="1"
         stop-color="#ffd600"
         id="stop14" />
    </linearGradient>
  </defs>
  <title
     id="title19">odysee_</title>
  <path
     class="cls-2"
     d="m 91.020003,80.24175 c -0.32,-0.6 -6.45,-10 -7.21,-17.9 -0.56,-5.47 -7.71,-11.54 -12,-14.73 a 3.11,3.11 0 0 1 -0.24,-4.75 c 4.23,-4 11.69,-11.8 14.05,-15.92 a 31.3,31.3 0 0 0 3.44,-13.89 51.89,51.89 0 0 0 -9.82,-8.2200001 c -3.48,1.72 -4.42,7.0700001 -5.95,13.3000001 -2.08,8.49 -7.000003,7.53 -9.000003,7.53 -2,0 -0.8,-3 -5.450001,-16.3400001 -4.65,-13.3400004 -16.74,-9.99999997 -25.93,-4.5 -11.68,7.0000001 -6.47,21.9300001 -3.58,31.5500001 -1.64,1.58 -7.81,2.81 -13.42,5.83 C 8.96,45.94175 1.85,51.95175 0,54.71175 a 51.33,51.33 0 0 0 2.62,11 5.89,5.89 0 0 0 1.38,0.95 c 3.29,1.53 8.129999,-1.09 12.709999,-5.84 a 23.33,23.33 0 0 1 4.57,-3.53 48.94,48.94 0 0 1 11.77,-5.53 c 0,0 4.49,6.89 8.65,15.06 4.16,8.17 -4.49,10.89 -5.45,10.89 -0.96,0 -14.59,-1.27 -11.55,10.26 3.04,11.529995 19.7,7.369995 28.19,1.759995 8.490001,-5.609995 6.41,-23.869995 6.41,-23.869995 8.330001,-1.28 10.890004,7.53 11.690004,12 0.8,4.47 -1,12.329995 7.37,12.499995 a 10.48,10.48 0 0 0 3.47,-0.54 51.94,51.94 0 0 0 8.74,-8.169995 2.88,2.88 0 0 0 0.45,-1.41 z m -42.090004,-54 c -8.49,3.2 -12.58,-1 -13.14,-8.65 -0.63,-8.6500001 7.53,-10.8900001 7.53,-10.8900001 9,-3 11.37,1.28 13.46,7.6900001 2.09,6.41 0.64,8.68 -7.85,11.85 z"
     id="path37"
     style="fill:#6c757d;fill-opacity:1" />
</svg>
