<?xml version="1.0" encoding="utf-8"?>
<!-- Generator: Adobe Illustrator 16.0.0, SVG Export Plug-In . SVG Version: 6.00 Build 0)  -->
<!DOCTYPE svg PUBLIC "-//W3C//DTD SVG 1.1//EN" "http://www.w3.org/Graphics/SVG/1.1/DTD/svg11.dtd">
<svg version="1.1" id="Layer_1" xmlns="http://www.w3.org/2000/svg" xmlns:xlink="http://www.w3.org/1999/xlink" x="0px" y="0px"
	 width="163.121px" height="91.606px" viewBox="0 0 163.121 91.606" enable-background="new 0 0 163.121 91.606"
	 xml:space="preserve">
<g>
	<g>
		<path fill="#DA3231" d="M5.38,43.898c-1.677,0.75-3.063,1.271-4.506,2.391c-2.4,1.861,0.651,5.032,3.029,3.926
			C26.048,39.922,48.608,30.629,71.18,21.341c10.512-4.326,21.065-8.568,31.943-11.895c9.8-2.998,20.566-5.591,30.854-3.979
			c3.153,0.494,4.507-4.323,1.329-4.821c-21.279-3.334-43.604,6.935-62.813,14.789C48.619,25.196,24.779,35.021,1.38,45.898
			c1.01,1.309,2.02,2.618,3.029,3.926c0.769-0.596,2.579-1.2,3.494-1.609C10.842,46.901,8.297,42.594,5.38,43.898L5.38,43.898z"/>
	</g>
</g>
<g>
	<g>
		<path fill="#DA3231" d="M64.409,27.824c6.786-5.244,18.211,0.463,20.576,7.817c2.215,6.886-3.768,12.124-9.08,15.182
			c-10.867,6.256-28.406,9.904-40.599,5.823c0.612,0.804,1.224,1.607,1.835,2.411c0-0.333,0-0.667,0-1
			c-0.833,0.833-1.667,1.667-2.5,2.5c1.711-0.199,3.303-0.803,5-1c3.164-0.368,3.199-5.372,0-5c-1.711,0.199-3.303,0.803-5,1
			c-1.353,0.157-2.5,1.018-2.5,2.5c0,0.333,0,0.667,0,1c0,1.158,0.772,2.055,1.835,2.411c7.981,2.671,17.194,1.629,25.306,0.193
			c9.26-1.639,19.256-4.964,26.1-11.689c5.839-5.738,6.797-15.133,1.331-21.522c-6.171-7.214-17.932-10.271-25.839-4.16
			C58.326,26.258,61.893,29.77,64.409,27.824L64.409,27.824z"/>
	</g>
</g>
<g>
	<g>
		<path fill="#DA3231" d="M93.306,47.467c2.021-0.614,3.461-2.962,2.132-4.907c-2.003-2.932-6.421-0.382-8.256,1.401
			c-3.617,3.513-4.983,8.98-0.024,11.921c3.773,2.238,9.343,1.789,13.076-0.24c5.326-2.895,3.369-8.707,0.175-12.353
			c0,1.178,0,2.357,0,3.535c4.876-3.892,9.636-7.237,15.897-8.357c-0.642-1.523-1.284-3.046-1.926-4.569
			c-3.798,2.152-6.52,5.445-10,8c-2.063,1.515-1.28,4.392,1.262,4.659c2.672,0.281,13.946,1.835,11.754,6.966
			c-2.041,4.778-9.971,4.683-14.089,4.124c0.199,1.523,0.398,3.046,0.597,4.569c7.728-4.215,16.522-8.736,21.891-15.958
			c6.261-8.422,2.112-16.14-5.891-21.359c-2.188-1.427-4.569,1.317-3.42,3.42c3.681,6.74,5.667,14.059,7.748,21.403
			c0.608,2.147,3.409,2.394,4.569,0.597c1.741-2.696,4.31-5.356,7.387-2.796c1.526,1.271,2.431,3.524,1.295,5.272
			c-1.762,2.712,2.568,5.216,4.317,2.523c2.637-4.059,0.636-9.757-3.272-12.295c-5.645-3.667-10.813-0.234-14.045,4.772
			c1.523,0.199,3.046,0.398,4.569,0.597c-2.201-7.764-4.363-15.477-8.252-22.597c-1.14,1.14-2.28,2.28-3.42,3.42
			c3.308,2.157,6.798,4.828,6.689,9.141c-0.079,3.124-3.017,5.982-5.083,7.982c-5.026,4.866-11.515,8.237-17.606,11.56
			c-1.745,0.952-1.611,4.27,0.597,4.569c7.186,0.976,17.867,0.213,20.404-8.16c2.764-9.124-10.771-12.124-16.739-12.751
			c0.42,1.553,0.841,3.106,1.262,4.659c3.462-2.542,6.237-5.868,10-8c2.604-1.475,0.747-5.047-1.926-4.569
			c-7.1,1.27-12.582,5.236-18.103,9.643c-1.115,0.89-0.818,2.601,0,3.535c3.452,3.942,0.424,5.479-3.771,5.479
			c-1.211,0-3.37-0.196-4.172-1.283c-0.367-0.497,0.009-1.113,0.252-1.582c0.262-0.465,0.572-0.897,0.93-1.294
			c0.202-0.216,0.403-0.432,0.605-0.648c2.648-0.663,3.068-2.28,1.26-4.851C88.901,43.581,90.213,48.407,93.306,47.467
			L93.306,47.467z"/>
	</g>
</g>
<g>
	<g>
		<path fill="#DA3231" d="M35.409,81.824c6.489-6.832,16.292-10.407,25.143-12.935c8.328-2.378,19.645-4.763,27.828-0.674
			c-0.299-1.14-0.598-2.28-0.897-3.42c-5.64,8.504-14.841,13.521-18.252,23.597c-0.543,1.604,0.871,3.1,2.411,3.165
			c15.657,0.666,32.484-5.451,47.04-10.464c8.98-3.093,17.832-6.648,26.363-10.83c6.132-3.006,12.585-6.457,17.365-11.438
			c2.232-2.325-1.299-5.866-3.535-3.535c-4.501,4.69-10.607,7.785-16.354,10.656c-8.115,4.054-16.612,7.336-25.168,10.326
			c-8.406,2.938-16.965,5.466-25.631,7.518c-6.508,1.541-13.35,3.054-20.08,2.768c0.804,1.055,1.607,2.109,2.411,3.165
			C77.213,80.383,86.513,75.29,91.8,67.318c0.718-1.082,0.273-2.836-0.897-3.42c-9.256-4.625-20.833-2.602-30.421-0.169
			c-10.042,2.547-21.324,6.892-28.608,14.561C29.655,80.625,33.185,84.166,35.409,81.824L35.409,81.824z"/>
	</g>
</g>
</svg>
